<?xml version="1.0" encoding="utf-8"?>
<!-- Generator: Adobe Illustrator 25.0.0, SVG Export Plug-In . SVG Version: 6.00 Build 0)  -->
<svg version="1.1" id="Calque_1" xmlns="http://www.w3.org/2000/svg" xmlns:xlink="http://www.w3.org/1999/xlink" x="0px" y="0px"
	 viewBox="0 0 1920 1080" style="enable-background:new 0 0 1920 1080;" xml:space="preserve">
<style type="text/css">
	.st0{fill:#6BB434;}
	.st1{fill:#60AF1D;}
	.st2{fill:#37B3DE;}
	.st3{fill:#6BB433;}
	.st4{fill:#057F3E;}
	.st5{fill:#25A73B;}
	.st6{fill:#0D7CC1;}
	.st7{fill:#077F3D;}
	.st8{fill:#639037;}
	.st9{fill:#A3997F;}
	.st10{fill:#6FB639;}
	.st11{fill:#72B73E;}
	.st12{fill:#F2AF08;}
	.st13{fill:#F7C304;}
</style>
<g>
	<path class="st0" d="M941.8,568.9c-1.5-1.7-0.8-2.1,1.1-2.2c3.3-0.1,6.5,1.5,10,0.2c1.5-0.6,3,1.1,4,2.5c2.9,3.7,2.8,11.2-0.1,15
		c-2.9,3.7-6.2,2.9-9.9,0.5c0,4,0,7.5,0,11c-1.3,0-2.7,0-4,0c-0.3-0.3-0.6-0.7-0.9-1c0-8.3,0-16.7,0-25c0.1-0.1,0.4-0.3,0.4-0.3
		C942.1,569.3,942,569.1,941.8,568.9z M952.9,577c0-2.4-0.5-4.8-3.1-5c-2.8-0.2-3.2,2.4-3.3,4.6c-0.1,2.2,0.5,4.7,3,4.9
		C952.2,581.6,952.8,579.2,952.9,577z"/>
	<path class="st1" d="M1183,560.5c1,0.1,1.9,0.2,2.9,0.3c0,0.3,0,0.7,0,1c-1.7,1.2-0.9,3-0.9,4.6c-0.2,6.5-0.2,12.9-0.2,19.4
		c-1.6-1.9-0.7-4.1-0.8-6.2C1183.4,573.3,1184.8,566.8,1183,560.5z"/>
	<path class="st1" d="M941.9,594.9c0.3,0.3,0.6,0.7,0.9,1c-0.3,0-0.7,0-1,0C941.9,595.5,941.9,595.2,941.9,594.9z"/>
	<path class="st2" d="M850.7,539c-4.3-3.1-7.9-5.7-11.5-8.3c-1.8-1.3-3.8-2.5-5.9-1c-2.9,2.1-5,0.7-7.7-0.6
		c-4.2-2.1-7.3-7.1-13.4-4.6c-1.8,0.8-1.4-2-1.1-3.3c0.6-2.6,1.9-5.3-2-6.4c-0.4-0.1-0.6-0.7-0.8-1.2c-4.5-12,4.1-28.1,16.6-30.9
		c12.8-2.8,25.1,6.2,25.9,19.4c0.2,3.3,0.1,6.6,0,10c0,0.7,0.2,1.7-0.2,1.9c-6.8,5-1.2,11.1-1.1,16.6
		C849.6,532.8,850.7,535.5,850.7,539z"/>
	<path class="st2" d="M890.7,557.1c-3.9,0-8,0.9-10.1-4c-0.7-1.6-2.8-2.2-4.8-2.3c-1.5-0.1-3-0.3-4.4-0.6c-7.5-1.6-7.2-1.7-7.6-9.3
		c-0.4-6.9,2.7-13.1,3-19.8c0.1-2.3,1.6-5.1-2.1-6.1c-0.8-0.2-0.8-1-0.8-1.6c-0.4-7.5,0.1-14.7,6.7-19.9c5.7-4.4,12-5.1,18.3-2.1
		c7.2,3.4,10.4,9.5,9.9,17.5c-0.2,2.5,1.2,5.5-2.5,7.1c-1.3,0.6-0.6,3.4-0.3,5.2c1.9,9.2,3.4,18.4,2.9,27.9
		C898.5,557.1,898.9,557.1,890.7,557.1z M893.7,504.2c0.1-5.6-5.1-11-10.7-11.1c-5.7-0.1-11,5-11.1,10.6
		c-0.1,5.8,4.8,10.9,10.7,11.1C888.2,515,893.6,509.8,893.7,504.2z"/>
	<path class="st3" d="M977.4,547.1c-3.4,1-4.7-1.2-5.7-4.5c-2.3-7.7-6-9.5-14.2-7.7c-2.2,0.5-2.4,2.2-2.7,3.7c-0.9,5.5-4,8-9.5,8.4
		c-3.7,0.3-4.9-0.7-3.7-4.3c4.4-13.2,9-26.3,13.4-39.5c1.1-3.3,3.8-6.4,1.3-10.2c-0.5-0.7,0.3-1.5,1.1-2c2.7,5.1,4.2-7.9,7.1-0.5
		c0.1,0.2,0.1,0.5,0.1,0.5c7.1-0.5,3.1,5.4,4.1,8c5.1,13.6,9.5,27.6,14,41.4C984.9,546.8,984.6,547.1,977.4,547.1z M963.2,511.7
		c-0.3,0-0.6-0.1-0.9-0.1c-1.1,4.3-2.3,8.5-3.4,12.8c-0.2,0.9-0.8,2.3,0.6,2.4c2.1,0.3,4.3,0.3,6.4,0c1.4-0.2,1-1.6,0.7-2.4
		C965.6,520.2,964.4,515.9,963.2,511.7z"/>
	<path class="st0" d="M1138.8,512.9c0.8-3.4,6-1.9,6.4-5.8c0-0.3,1.2-0.1,1.6,0.6c0.3,0.6,0.4,1.8,0.6,1.8c7.8-0.1,3,5.2,3.1,7.9
		c0.4,8.1,0.3,16.3,0.1,24.5c0,1.9,1.7,5.2-2.4,5.2c-3.1,0-7.4,1.7-7.9-3.9c-8.9,7.2-16.6,4.9-20.5-6c-1.9-5.2-1.9-10.5-0.5-15.7
		c2.9-10.5,9.7-13.5,19.6-8.7c0.1,0.1,0.2,0.3,0.3,0.4c0,0,0.2,0,0.3-0.1C1139.2,513.1,1139,513,1138.8,512.9z M1129.6,528.3
		c0,4.6,3.5,10.5,5.7,10.3c3.2-0.3,6.6-5.8,6.3-10.3c-0.1-1.1-0.4-2.3-0.7-3.4c-0.9-2.8-2.4-5.3-5.8-5c-3.4,0.3-4.5,3-5.2,5.8
		C1129.7,526.7,1129.7,527.7,1129.6,528.3z"/>
	<path class="st0" d="M1039.7,513.9c-0.7-0.9-1.2-3.1-0.8-2.8c3.6,2.8,3.7-8,7.3-1.9c1,1.7,2.1,1,3.1,1.3c2,0.7,0.8,1.5,0.5,2.4
		c-0.1,0.1-0.4,0.2-0.3,0.3c0.1,0.2,0.2,0.5,0.4,0.7c0,5.7,0,11.4-0.1,17.1c-1.2,1.4-1.3,2.7,0.2,3.9c1.5,2.4,3.2,4.4,6.4,3.5
		c3.1-0.9,3.8-3.5,3.7-6.4c-0.3-6.6,1.1-13.3-0.9-19.8c-0.4-1.3,0-2.3,1.6-2.4c0.2,0,0.4,0,0.5,0.1c3.2,2.3,2.5-5.5,5-2.2
		c1.6,2.2,2.6,3.8,5.9,2.6c-3.5,8.8-0.7,17.3-2.2,25.6c-1,0.6-1.1,1.2-0.1,2c-1.9,7.5-6.4,10.8-14.7,10.8
		c-8.8-0.1-13.2-3.5-14.9-11.8c1.8-4.2,0.7-8.7,0.7-13C1040.8,520.5,1042.1,517,1039.7,513.9z"/>
	<path class="st0" d="M999.8,547.8c-5.8-0.3-10.8-1.4-13.8-6.5c-1.2-2-2.4-4.6-0.2-6.4c2-1.7,4.7-1.3,6.9,0.2c1.6,1.1,3,2.6,4.6,3.7
		c1.6,1.2,3.3,1.2,4.2-0.6c1-1.9,0.5-3.6-1.7-4.4c-2.7-1-5.4-1.7-8-2.8c-3.9-1.5-6.3-4.4-6.5-8.7c-0.2-4.4,0.7-8.8,5-10.6
		c3.6-1.6,7.7-3.1,11.7-1.3c1,0.4,2,1.2,2.3,0.3c2.6-7.1,4.9,0.7,7.4,0.1c0.9-0.2,1.3,0.8,0.8,1.7c-0.4,0.9-1,1.8-1.1,2.7
		c0,2,2.7,4.9-1,5.8c-3.1,0.8-6.7,1-9-2.3c-0.8-1.1-1.7-2.2-3.3-1.7c-1.2,0.4-2.1,1.1-2.2,2.4c-0.2,1.8,1.1,2.6,2.5,3.3
		c2.8,1.4,5.9,1.8,8.7,3.2c5.5,2.7,6.2,6.8,5.6,11.9c-0.6,5.1-3.7,8-8.6,9.1C1002.6,547.3,1000.9,547.6,999.8,547.8z"/>
	<path class="st0" d="M1182.8,513.7c0,0.6-0.1,1.1-0.1,1.6c-0.1,1.9,2.7,4.5-0.6,5.6c-3.2,1.1-6.6,1.1-9.2-1.8
		c-0.7-0.7-1.3-1.6-2.2-1.9c-1.5-0.7-2.6,0.2-3.3,1.5c-1,2,0.3,3.2,1.8,4c2.9,1.5,6.2,1.6,9.2,3.5c6.2,3.9,7.8,12.3,2.8,17.7
		c-5.4,5.9-19.3,4.9-23.7-1.8c-1.3-2.1-3-4.8-0.9-6.8c2.1-2,5.1-1.9,7.6,0.4c1.2,1.1,2.5,2.1,3.9,3c1.7,1.3,3.5,1.7,4.6-0.5
		c1-2,0.3-3.6-1.8-4.4c-2.8-1-5.8-1.7-8.4-3c-7.6-3.8-8.2-15.1-0.8-19.2c3.2-1.8,7.3-2.4,11.3-1.6c0.9,0.2,2.7,0.6,2.8,0.4
		c2.5-7.1,4.4,0.6,6.7,0.4C1184.8,510.7,1182.2,512.8,1182.8,513.7z"/>
	<path class="st4" d="M792.9,566.8c-9.8,2.7-19.6,2.7-29.3-0.3c-2.3-0.7-3.6-1.9-3.4-4.6c0.3-3.6,0.2-7.3,0-10.9
		c-0.2-2.8,1-3.3,3.5-3.1c7.7,0.7,14.7-1.2,21.1-5.6c2.8-1.9,5.9-2.9,9.2-0.7c0,3.2,0.1,6.3-0.1,9.5
		C793.5,556.3,794.9,561.7,792.9,566.8z"/>
	<path class="st5" d="M813,588.7c-3.1-6.2-5.6-12.6-4.6-19.8c0.3-2.3,0.8-3.4,3.1-4.3c7.6-2.9,15.6-3.2,23.4-3.4
		c4.6-0.1,9.4,2.3,14,3.9c3.1,1,1.5,3.9,1.8,6.1c0.3,2.4-1.6,2.4-3.2,2.7c-8,1.2-15.9,2.5-19.7,11.1c-1.1,2.2-2.7,3.1-5.3,3
		C819.3,587.9,816,587,813,588.7z"/>
	<path class="st6" d="M866.8,565.4c6,0,11.9,0.1,17.9,0.1c0.4,0,0.9,0.1,1.3,0.1c0-0.3-0.1-0.5-0.1-0.8c-0.3-1.3-0.5-2.5-0.8-3.8
		c0.3-0.1,0.4-0.3,0.5-0.3c13.3-1,12.8-1,13.5,12.2c0.3,5.8-3.4,9.7-4.2,14.8c-0.2,1.4-1.5,1.1-2.4,1.1c-7.3,0-14.7,0-22,0
		c-4.7,0-2.3-4.3-3.8-6.3c-1.7-2.1,0.8-2.4,1.8-3c3.4-1.7,6.7-3.7,10.7-3.8c3.8-0.1,7.6,0,11.7,0c-0.6-4.4-2.6-6.2-6.9-6
		c-5.8,0.2-11.6-1-17.1-2.9C866.7,566.4,866.8,565.9,866.8,565.4z"/>
	<path class="st7" d="M850.7,562.4c-13.5-6.7-26.5-5.7-39.5-1.2c-2.4,0.8-3,0.3-2.8-2c0.1-0.7,0-1.3,0-2c0-3.2-0.9-6.9,0.4-9.3
		c1.4-2.5,5.4-0.2,8.3-0.9c5.9-1.5,11.6-4.5,18-2.1c4.5,1.7,8.9,3.8,13.8,3.8c2.1,0,1.8,1.5,1.8,2.8
		C850.7,554.8,850.7,558.2,850.7,562.4z"/>
	<path class="st5" d="M765,588.8c-2.7-6.1-6.7-11.8-4.1-19.4c1.8-0.9,3.1,1.4,4.8,2c6,2.2,12.4-0.6,18.4,1.4c1,0.3,2.6,0.3,3.4-0.3
		c2.5-1.8,5.7-1.7,6.9,0c1.5,2.1,1.6,6.1,0,8c-2,2.3-2.2,5-3.5,7.4c-3.5,0-6.9-0.2-10.4,0C775.3,588.3,770,586.8,765,588.8z"/>
	<path class="st8" d="M790.5,536.6c-7.6,3.5-16.3,2.3-24.9,2.4c-5.8,0.1-7-1.7-4.5-7c0.7-1.5,0.7-2.9,0.9-4.3
		c0.9-6.7,7.5-10.2,13.5-6.9c1.6,0.9,3.1,1.9,4.7,2.8c3,1.7,5.7,4.2,9.5,1.2c2-1.7,3.1-0.7,3.4,1.9c0.2,2.1,0.9,4.1,1.6,6.1
		C795.3,534.8,796.2,538.8,790.5,536.6z"/>
	<path class="st3" d="M1028.8,546.9c-2.7,0-5.3,0-8,0c0-7.8,0-15.6,0-23.5c0-1.6,0.6-3.4-1.1-4.6c-0.6,0-1.2-0.1-1.8-0.1
		c-0.3-3.1,0-6.1,2-8.7c0-1.7,0.5-3.6-0.1-4.9c-2.6-5.1,1.1-6.6,4.5-8.2c0.7-0.3,2.5-1.4,2.5,0.8c0.1,2.5,6.5-1.3,4,4.5
		c-1.3,2.8-4.1,8.4,3.3,9.8c1.9,0.3,0.9,3.3,0.8,5c-0.3,3.2-3.1,1.4-4.7,1.9c-1.8,1.1-1.2,3-1.2,4.5
		C1028.8,531.3,1028.8,539.1,1028.8,546.9z"/>
	<path class="st3" d="M1085.8,546.9c-2.3,0-4.6,0-6.9,0c-0.4-0.4-0.7-0.7-1.1-1.1c0-10.3,0-20.7,0-31c0.8-0.5,0.4-0.8-0.2-0.9
		c-0.5-1.2-3.9-3,0.6-3.2c1.8-0.1,2.5-0.7,2.9-2.5c0.4-1.5,1.9-2,2.8-0.3c1.8,3.4,5.3,2.4,7.9,3.6c1.9,0.9,5.5-1.9,5.9,2.1
		c0.3,3.4,1.3,7.3-4.3,8.3c-4.1,0.7-5.5,4.5-5.6,8.4c-0.1,5-0.1,9.9-0.1,14.9c0,0.7-0.2,1.3-0.9,1.6
		C1086.4,546.1,1086.1,546.3,1085.8,546.9z"/>
	<path class="st9" d="M785.8,521.9c-3.8-0.4-6.7-3.1-10-5c-2.7-1.6-5.7-3.2-8.2-0.8c-3.7,3.5-5.5-0.7-6.9-1.9
		c-1.5-1.3-0.9-4.4,0.4-6.9c2.5-4.5,8-4,11.1-7.4c0.2-0.2,0.8-0.2,0.9-0.1c4.9,6.6,14.7,5.8,19.5,12.5c0.6,0.8,1.6,1.2,0.4,2.8
		C791,518,791,522.5,785.8,521.9z"/>
	<path class="st8" d="M808.5,536.6c-0.1-1.7-0.1-4.1,2.1-6.3c2.9-2.9,5.3-4.2,8.8-1.3c1.7,1.4,3.7,2.3,5.4,3.5
		c2.5,1.7,4.6,3.1,8,1.4c2.1-1,4.8-0.5,7,1.3c2.7,2.2,5.6,4.1,8.4,6.2c0.8,0.6,1.8,1.2,1.2,2.4c-0.5,1-1.4,1.4-2.5,1.2
		c-2.6-0.6-5.2-1.2-7.6-2.1c-6.3-2.4-12.5-3-18.9-0.2c-1.6,0.7-3.5,1.1-5.3,1.2C808.6,544.3,808.5,544.2,808.5,536.6z"/>
	<path class="st0" d="M1102.6,513.9c-0.8-1.3-3.5-3,0.7-3.2c1.3-0.1,2.7-0.1,2.6-2.1c0-0.4,0.4-0.9,0.7-1.2c0.5-0.5,1.8-0.5,1.7-0.1
		c-0.7,4.6,6.3,0.7,5.4,4.8c-2.2,10-0.3,20.2-1,30.2c-0.1,1.5,0.9,3.3-0.9,4.5c-0.4-0.6-0.7-0.5-1,0.1c-2.3,0-4.6,0-7,0
		c-0.4-0.4-0.7-0.7-1.1-1.1c0-10.3,0-20.7,0-31C1103.6,514.3,1103.3,514.1,1102.6,513.9z"/>
	<path class="st10" d="M1110.7,576.2c0,2.7,0,5.3,0,8c0,1,0.1,2-1.1,2.5c-1.3,0.6-12.7-0.8-13.6-1.7c-3.4-3.5-3.9-10.3-1.2-14.9
		c1.1-1.9,2.7-2.9,4.7-3.2c2.7-0.4,5.8,1.8,7.9-1.6c1.3,1.2,3.6,1.3,3.3,3.9C1110.6,571.5,1110.7,573.8,1110.7,576.2
		C1110.7,576.2,1110.7,576.2,1110.7,576.2z M1105.8,576.9c-0.2-2.3-0.7-4.7-3.3-4.8c-2.7-0.1-3.3,2.5-3.4,4.6
		c-0.1,2.2,0.7,4.8,3.2,4.8C1104.9,581.6,1105.5,579.1,1105.8,576.9z"/>
	<path class="st10" d="M1125.8,573.5c0-1.3,0.4-2.8-0.1-3.9c-1.3-3.1,2.1-2.8,2.8-4.4c1.2,1.2,3.1,1.8,3,4.1c-0.1,3.1-0.1,6.3,0,9.4
		c0.1,1.8,0.6,3.4,2.9,3.2c1.9-0.1,2.4-1.6,2.4-3.2c0-3,0.6-6.1-0.1-8.9c-0.7-3,1.6-4,2.9-4.3c1.1-0.3,3,1.6,3,3.7
		c-0.1,4,0,8-0.4,11.9c-0.5,5.3-4.2,6.3-8.9,6.2c-4.5,0-6.8-2.2-7.4-6.3c-0.3-2.4-0.1-5-0.1-7.4
		C1125.9,573.5,1125.8,573.5,1125.8,573.5z"/>
	<path class="st10" d="M976.9,586.6c-2.9,0.6-5.6-1.3-8.7,0.2c-2,0.9-4-1.1-5.2-3c-2.6-4.3-2.8-8.8-0.4-13.3c2-3.7,5-4.5,8.8-3
		c0.1,0.1,0.3,0,0.5,0c6.9-0.7,6.9-0.7,6.7,6.6c-0.1,3.6-0.2,7.3-0.3,10.9C977.2,585.1,976.9,585.7,976.9,586.6z M970.1,581.7
		c2.5-0.4,3.3-2.2,3.5-4.2c0.3-2.4-0.4-5-3.1-5.4c-2.5-0.4-3.2,2.1-3.5,4C966.7,578.5,967.6,580.6,970.1,581.7z"/>
	<path class="st2" d="M794.4,510.7c-2.8-5.8-7.4-8.1-11.2-9.3c-4.1-1.3-6.7-3.6-9.6-6.1c-0.6-0.5-1.4-0.6-1.7,0
		c-2.2,3.6-7,2.2-9.7,6.1c1.8-8.3,10-13,18.7-11.6C789.8,491.3,795.6,499.3,794.4,510.7z"/>
	<path class="st0" d="M1060.4,576.5c0,6.4-3.7,10.6-9.4,10.5c-5.4-0.1-9.1-4.2-9.1-10.3c0-5.9,4.4-11.4,9.3-11.6
		C1054.7,565,1060.4,572,1060.4,576.5z M1047.8,577.2c0.5,1.7,0.8,4.3,3.5,4.2c2.5-0.1,3.3-2.7,3.2-4.8c-0.1-2.1-0.6-4.7-3.4-4.5
		C1048.4,572.1,1048,574.5,1047.8,577.2z"/>
	<path class="st0" d="M1011.8,569.8c0,4.7,0,9.4,0,14c-1,0.6-1,1.3,0,2c-0.1,0.3-0.3,0.7-0.5,0.8c-3.3,0.7-6.6-1-10.1,0.1
		c-2.4,0.8-4.3-1.9-5.4-4.3c-1.4-3.2-1.5-6.5-0.6-9.7c1-3.6,3-6.4,7.5-4.9c2.4,0.9,4.2,0.2,5.7-1.5c0.6-0.6,0.9-2.3,1.7-0.3
		c0.4,1.1,4.4,0.1,1.8,2.9c-0.1,0.1-0.4,0.2-0.4,0.3C1011.5,569.4,1011.7,569.6,1011.8,569.8z M1000.9,575.5c-0.2,3.2,0.3,5.6,2.8,6
		c2.7,0.4,3.4-2.2,3.5-4.4c0.1-2.2-0.3-4.8-2.8-5.1C1001.7,571.7,1001,574.1,1000.9,575.5z"/>
	<path class="st3" d="M1175.9,567.9c-0.1,5.7-0.2,11.3-0.2,17c-0.1,0.1-0.3,0.2-0.3,0.2c0.1,0.2,0.2,0.4,0.3,0.7
		c-0.1,0.9-0.7,0.9-1.4,1c-2.9,0.1-5.7-1.3-8.9,0c-2.3,0.9-4.3-1.5-5.4-3.6c-2.1-4.1-2.1-8.3-0.2-12.5c1.2-2.7,3.2-3.9,6.3-3
		c1.5,0.4,3.1,1.6,4.5-0.8c0.4-0.8,2.9-1.6,4.3,0.1C1175.2,567.2,1175.6,567.6,1175.9,567.9z M1170.9,575.7
		c-0.1-1.4-0.7-3.8-3.3-3.7c-2.6,0.1-3.2,2.7-3.1,4.9c0,2.2,0.7,4.7,3.4,4.6C1170.4,581.3,1170.9,578.9,1170.9,575.7z"/>
	<path class="st10" d="M1074.8,584.8c-0.2-5.5-0.6-10.9-0.6-16.4c0-2.9,2.2-2.4,4.1-2c2.4,0.5,4.7,1.2,7.5,0.6
		c3-0.6,4.7,2.5,4.9,5.4c0.3,4,0.1,8,0.2,11.9c0.1,2.2-1.2,2.3-2.9,2.4c-1.8,0-2.8-0.4-2.8-2.5c0.1-3.2,0-6.3-0.1-9.5
		c-0.1-1.5-0.3-3.1-2.4-3c-1.9,0.1-2.6,1.4-2.7,3c-0.1,2.7-0.2,5.3-0.1,8c0.3,4.4-1.4,5.2-5,3.1
		C1075.6,585.5,1075.5,585.1,1074.8,584.8z"/>
	<path class="st0" d="M1032,586.9c-1.7,0.1-3.7-0.2-5.3-1.6c-1.2-1.1-3-2.5-1.4-4c0.8-0.8,3-2.3,4.8-0.3c0.7,0.8,1.4,2.1,2.8,1.4
		c0.6-0.3,1-0.9,0.8-1.6c-0.4-1.3-1.6-1.5-2.7-1.8c-3.1-1-6.3-2-6-6.1c0.2-3.1,0.8-5.9,5.2-5.3c1.7,0.2,3.5-0.6,5.2-1
		c0.7-0.1,0.6-3.1,2-0.4c1,1.9,2.2,3.8,1.4,5.9c-0.5,1.3-2,0.6-3.1,0.7c-1.7,0.1-3.2-4.3-4.6-1c-1,2.4,2.9,1.7,4.3,2.9
		c2.1,1.9,5.2,3.2,4.3,6.9C1038.8,585.5,1036.1,586.9,1032,586.9z"/>
	<path class="st11" d="M1120.7,563.5c0.6,1.6-1.1,3.9,1.9,4.4c0.7,0.1,1,1,0.5,1.6c-4,4.2-1.8,9.4-2.2,14.1c-0.2,2.2-0.5,3.3-3,3.2
		c-2.2-0.1-2.8-1-2.8-3c-0.1-4.9,0.2-9.7-1-14.7c-0.6-2.4,1.6-5.3,0.8-8.2c1.7,0.3,2.2-2.7,3.4-1.8
		C1119.4,560.1,1122.7,560.6,1120.7,563.5z"/>
	<path class="st12" d="M840.4,588.9c-2.2,0-3.2,0.1-4.2,0c-1.6-0.3-3.9,1.1-4.7-1.4c-0.7-2.1,0.5-4,2.1-5.3
		c4.4-3.7,9.9-4.5,15.3-5.3c2.5-0.3,2,1.7,1.5,3.1c-0.5,1.2-2.2,2-2.3,3.1C847.6,589.1,844.2,590.1,840.4,588.9z"/>
	<path class="st10" d="M1146.7,568.9c0-2.5,2.5-3.3,5.5-2.1c0.7,0.3,0.6,2.7,2.3,0.9c0.7-0.7,2.2-1.7,2.8,0c0.6,1.6,1.2,4.3-0.8,4.9
		c-5.6,1.8-4.6,6.2-4.6,10.2c-0.1,4.7-0.2,4.8-5,3c0.7-0.4,0.6-0.7-0.1-1c-0.4-5-0.4-10,0-15
		C1147.6,569.4,1147.4,569.1,1146.7,568.9z"/>
	<path class="st7" d="M864.3,551.7c3.7,1.2,7,2.3,10.5,2.3c1.5,0,3,0.5,3.9,1.9c1,1.7,2.5,3.6,1.9,5.3c-0.6,1.5-2.9,0.4-4.5,0.6
		c-1,0.1-2,0-3,0C863.4,561.9,863.4,561.9,864.3,551.7z"/>
	<path class="st11" d="M1015.9,576.3c0-2.5,0.2-5-0.1-7.4c-0.3-2.5,2.2-2.3,3-3.7c0.6,1.6,3.5,0.7,3.2,3.8
		c-0.6,4.9-0.3,9.9-0.2,14.8c0,1.9-0.3,3.1-2.7,3.1c-2.4,0-3.3-0.8-3.1-3.2c0.1-2.5,0-5,0-7.4C1016,576.3,1016,576.3,1015.9,576.3z"
		/>
	<path class="st3" d="M983.8,566.9c2.9-1.1,5.7,2.3,8.7,0.1c0.8-0.5,1.4,0.7,1.3,1.5c-0.1,1.4,0.8,3.6-0.8,4
		c-6.1,1.5-4.7,6.3-4.9,10.3c-0.2,4.5-0.5,4.7-5.1,2.9C984.9,579.6,983.4,573.2,983.8,566.9z"/>
	<path class="st3" d="M1184.7,585.8c0,0.3,0,0.7,0,1c-1.6-0.4-3.5,0.9-4.8-1c0.1-0.1,0.4-0.3,0.3-0.3c-0.1-0.2-0.3-0.5-0.4-0.7
		c-0.2-7.6-0.3-15.2-0.5-22.8c1.1-0.2,2.1-0.5,2.5-1.8c-0.3-0.7-0.1-1.3,0.7-1.2c0.2,0,0.3,1,0.5,1.5c1.8,6.3,0.4,12.7,0.9,19.1
		C1184,581.7,1183.1,583.9,1184.7,585.8z"/>
	<path class="st3" d="M1100.3,499.2c3.1-0.5,5.8-0.2,6.1-3.6c0.1-0.6,1.5-0.9,1.6-0.6c0.7,3,4,2.7,5.4,4.7c0.1,0.2-1.1,1.6-1.9,2
		C1107.4,504,1104.1,502.6,1100.3,499.2z"/>
	<path class="st2" d="M760.5,543.3c4.9-1.6,10-0.7,15-0.7C770.7,545,765.7,545.8,760.5,543.3z"/>
	<path class="st1" d="M1028.8,546.9c0-7.8,0-15.7,0-23.5c0-1.6-0.6-3.4,1.2-4.5c0,7.9,0,15.8-0.2,23.7
		C1029.8,544,1030.9,545.9,1028.8,546.9z"/>
	<path class="st1" d="M1019.7,518.9c1.7,1.2,1.1,3,1.1,4.6c0.1,7.8,0,15.6,0,23.5c-2-1.1-0.9-2.9-1-4.4
		C1019.7,534.7,1019.7,526.8,1019.7,518.9z"/>
	<path class="st7" d="M792.9,566.8c2-5.1,0.6-10.5,1-15.8c0.2-3.1,0.1-6.3,0.1-9.5c2,4.5,0.6,9.3,0.9,14c0.2,3,0,5.9,0,8.9
		C794.9,565.9,794.9,567.2,792.9,566.8z"/>
	<path class="st4" d="M765,588.8c5.1-2,10.4-0.5,15.5-0.8c3.4-0.2,6.9,0,10.4,0c-1.9,2.2-4.3,0.9-6.5,0.9
		C777.9,589,771.4,588.8,765,588.8z"/>
	<path class="st1" d="M1039.7,513.9c2.3,3.1,1,6.6,1,9.9c0,4.3,1.1,8.8-0.7,13C1039.9,529.2,1039.8,521.5,1039.7,513.9z"/>
	<path class="st11" d="M1019.9,510c-2.1,2.6-2.4,5.6-2,8.7C1014.7,514.7,1015.4,511.4,1019.9,510z"/>
	<path class="st1" d="M983.8,566.9c-0.5,6.3,1.1,12.7-0.9,18.9c-0.7-6.1,0.5-12.3-0.7-18.5C982.1,566.6,983.3,566.9,983.8,566.9z"/>
	<path class="st7" d="M813,588.7c3.1-1.6,6.4-0.8,9.5-0.7c2.7,0.1,4.2-0.8,5.3-3c0.4,2.7,0.1,4.4-3.4,4
		C820.6,588.6,816.8,588.8,813,588.7z"/>
	<path class="st2" d="M866.8,565.4c0,0.5-0.1,1-0.1,1.5c-1,0-2.6,0.3-2.3-1.3C864.7,564.5,865.9,565,866.8,565.4z"/>
	<path class="st1" d="M1049.9,534.8c-1.5-1.2-1.4-2.6-0.2-3.9C1049.8,532.2,1049.9,533.5,1049.9,534.8z"/>
	<path class="st1" d="M976.9,586.6c0-0.9,0.3-1.5,1.3-1.7C978.6,586.1,978.2,586.7,976.9,586.6z"/>
	<path class="st1" d="M1181.8,560.3c-0.3,1.3-1.3,1.6-2.5,1.8C1178.8,559.6,1181.3,561.2,1181.8,560.3z"/>
	<path class="st1" d="M1175.9,567.9c-0.4-0.3-0.7-0.7-1.1-1c0.5,0.1,0.9,0.1,1.4,0.2C1176.1,567.3,1176,567.6,1175.9,567.9z"/>
	<path class="st2" d="M885.9,564.9c0,0.3,0.1,0.5,0.1,0.8c-0.4,0-0.9-0.1-1.3-0.1C885.1,565.4,885.5,565.1,885.9,564.9z"/>
	<path class="st1" d="M1069.7,537.8c-0.9-0.7-0.8-1.4,0.1-2C1069.8,536.5,1069.7,537.2,1069.7,537.8z"/>
	<path class="st1" d="M1011.8,585.8c-1-0.7-0.9-1.3,0-2C1011.8,584.5,1011.8,585.2,1011.8,585.8z"/>
	<path class="st1" d="M1011.8,569.8c-0.1-0.2-0.3-0.5-0.3-0.7c0,0,0.2-0.2,0.4-0.3C1011.9,569.2,1011.9,569.5,1011.8,569.8z"/>
	<path class="st1" d="M1146.7,568.9c0.7,0.2,0.9,0.5,0.1,1C1146.7,569.6,1146.6,569.2,1146.7,568.9z"/>
	<path class="st1" d="M941.8,568.9c0.1,0.2,0.3,0.4,0.4,0.7c0,0-0.2,0.2-0.4,0.3C941.8,569.5,941.7,569.2,941.8,568.9z"/>
	<path class="st1" d="M1110.8,546.9c0.3-0.6,0.6-0.7,1-0.1C1111.5,546.8,1111.2,546.9,1110.8,546.9z"/>
	<path class="st1" d="M1102.8,545.8c0.4,0.4,0.7,0.7,1.1,1.1C1103.1,547,1102.7,546.6,1102.8,545.8z"/>
	<path class="st1" d="M1085.8,546.9c0.3-0.7,0.6-0.8,1-0.1C1086.5,546.9,1086.2,546.9,1085.8,546.9z"/>
	<path class="st1" d="M1077.8,545.8c0.4,0.4,0.7,0.7,1.1,1.1C1078.1,547,1077.7,546.6,1077.8,545.8z"/>
	<path class="st1" d="M1102.6,513.9c0.7,0.2,1,0.4,0.2,0.9C1102.7,514.6,1102.6,514.3,1102.6,513.9z"/>
	<path class="st1" d="M1077.6,513.9c0.7,0.2,1,0.4,0.2,0.9C1077.7,514.6,1077.6,514.3,1077.6,513.9z"/>
	<path class="st1" d="M1074.8,584.8c0.7,0.3,0.8,0.6,0.1,1C1074.8,585.5,1074.8,585.2,1074.8,584.8z"/>
	<path class="st1" d="M1146.8,584.8c0.7,0.3,0.8,0.6,0.1,1C1146.8,585.5,1146.8,585.2,1146.8,584.8z"/>
	<path class="st1" d="M1175.7,585.8c-0.1-0.2-0.2-0.4-0.3-0.7c0-0.1,0.2-0.2,0.3-0.2C1175.8,585.2,1175.8,585.5,1175.7,585.8z"/>
	<path class="st1" d="M1179.8,584.9c0.1,0.2,0.3,0.4,0.4,0.7c0,0-0.2,0.2-0.3,0.3C1179.9,585.5,1179.9,585.2,1179.8,584.9z"/>
	<path class="st1" d="M1049.8,513.8c-0.1-0.2-0.3-0.4-0.4-0.7c0,0,0.2-0.2,0.3-0.3C1049.8,513.2,1049.8,513.5,1049.8,513.8z"/>
	<path class="st13" d="M889.9,504c0,4.3-2.9,7-7.2,7c-4.3,0-7.1-2.9-7.1-7.2c0.1-4.3,3-7.2,7.2-7.1C887.1,496.8,890,499.8,889.9,504
		z"/>
</g>
</svg>
