<?xml version="1.0" encoding="utf-8"?>
<!-- Generator: Adobe Illustrator 25.0.0, SVG Export Plug-In . SVG Version: 6.00 Build 0)  -->
<svg version="1.1" id="Calque_1" xmlns="http://www.w3.org/2000/svg" xmlns:xlink="http://www.w3.org/1999/xlink" x="0px" y="0px"
	 viewBox="0 0 1920 1080" style="enable-background:new 0 0 1920 1080;" xml:space="preserve">
<style type="text/css">
	.st0{fill:#86CFED;}
	.st1{fill:#56AF37;}
	.st2{fill:#058540;}
	.st3{fill:#0B8DD1;}
	.st4{fill:#7F9A34;}
	.st5{fill:#C0AF8C;}
	.st6{fill:#1EA43E;}
	.st7{fill:#24A541;}
	.st8{fill:#F8BC15;}
	.st9{fill:#0FA234;}
	.st10{fill:#2BA445;}
	.st11{fill:#37A94E;}
	.st12{fill:#C8E8DD;}
	.st13{fill:#E8F9E4;}
	.st14{fill:#FFFFFF;}
	.st15{fill:#FCCC0F;}
</style>
<g>
	<path class="st0" d="M991.1,510.8c-0.6-6.5,2.2-12,2.6-18c0.1-2.2,0.6-3.8-1.5-5.6c-2.5-2.2-1.2-5.7-1-8.5
		c0.4-8.1,6.2-14.5,13.6-15.7c8.2-1.4,15.7,2.4,18.3,10.3c1.6,4.8,3.5,10.4-1.2,15.1c-1.1,1.1-0.6,2.5-0.2,3.8
		c3.1,10.2,2.5,20.7,2.6,31.1c0,2.8-1,3.9-3.8,3.7c-2.7-0.2-5.3,0-8-0.1c-1,0-2.6,0-2.8-0.5c-2.5-6.4-8.5-5.5-13.5-6.6
		C990.3,518.7,990.8,514.6,991.1,510.8z M1019,477.9c0-4.5-4.2-8.7-8.5-8.7c-4.2,0.1-8.2,4.1-8.3,8.4c-0.1,4.2,4.3,8.5,8.7,8.4
		C1015.5,485.9,1019,482.5,1019,477.9z"/>
	<path class="st0" d="M943.8,497c3.1-7.3-2.8-13.1-2.2-20c1-12.4,8.2-20.9,19.9-21c11.8-0.1,20.4,8.5,20.4,21
		c0,4.2,0.9,8.4-2.5,12.6c-1.5,1.8,0.6,6.6,1.1,10c0.5,3.2,2.2,6.3,0.8,10.2c-3.6-2.6-7.1-5.1-10.6-7.5c-1.3-1-3-2.6-4.4-1.6
		c-4.9,3.3-8.2-0.1-11.7-2.4C951.3,496,948.2,494,943.8,497z"/>
	<path class="st1" d="M952,556.6c-1.7-0.3-5.6,1.3-6.2-0.7c-1.1-3.4-3.7-6.3-3.9-9.9c-0.2-3.1,0-6.3-0.1-9.5
		c-0.1-1.8,0.7-2.8,2.3-3.3c11.6-4.1,23.1-5.5,35-0.3c3.8,1.7,2.9,4.4,2.8,7c-0.1,2.8-2.4,3-4.7,3.1c-3.8,0.2-7.3,1.5-10.7,2.9
		c-2.5,1-3.7,3.1-5.1,5.2c-1.1,1.7,0.9,4.8-2.1,5.5C957.1,557,954.9,556.6,952,556.6z"/>
	<path class="st2" d="M909.2,537.1c-3.1-0.3-6.1-1.1-9-2.2c-0.4-0.3-0.8-0.6-1.2-0.9c-0.1-4.7-0.2-9.4-0.2-14.2
		c0-1.4-0.3-3.2,2.1-2.7h-0.1c6.2,1.3,11.9,0,17.3-3.1c2.4-1.2,4.6-2.7,7.1-3.5c4.3-1.4,6.7,0.4,6.7,4.9c0,5.7-0.1,11.3,0.1,17
		c0.1,2.4-0.6,3.4-3.2,3.9c-6.3,1.3-12.5,1.3-18.8,0.8C909.7,536.9,909.4,536.9,909.2,537.1z"/>
	<path class="st3" d="M1015.6,543c-0.2-3.1-1.8-4.3-4.9-4.3c-5.5,0-10.9-1.1-16.2-2.6c-1.2-0.3-2.7-0.3-3.2-2.6c5.6,0,11,0,16.4,0
		c1.8,0,4,0.5,3.1-2.7c-0.4-1.4,0.5-1.7,1.6-1.7c3.3,0,6.7,0,10,0c1.5,0,2.1,0.8,2.1,2.2c0,5.2,0.4,10.4-0.2,15.5
		c-0.4,3.1-3.4,5.5-3.5,9c0,1.1-1.6,0.9-2.6,0.9c-6.8,0-13.7-0.1-20.5,0.1c-3.2,0.1-3.4-2-3.7-4.2c-0.3-2-2.1-4.1,1.4-5.6
		c4.1-1.8,8.1-3.7,12.8-3.5C1010.6,543.6,1013.1,544,1015.6,543z"/>
	<path class="st2" d="M941.7,523.7c0-0.8,0.1-1.7,0-2.5c-0.5-3.7,0.4-5.5,4.7-4.7c2,0.4,4.4,0,6.3-0.9c6.6-2.9,13-2.3,19.3,0.6
		c1.1,0.5,2.3,0.6,3.3,1.2c2,1,5.5-0.9,6.2,1.7c0.8,3.3,0.3,6.9,0.2,10.4c0,1.9-1.3,1.5-2.4,1c-11.5-5.1-23-4.2-34.5-0.1
		c-2.6,0.9-3.3,0.2-3.2-2.3C941.8,526.7,941.7,525.2,941.7,523.7z"/>
	<path class="st4" d="M911.4,509.9c-3.5,0-5.9-0.2-8.2,0.1c-4,0.5-5.5-1.5-4.4-4.8c1.6-4.6,0.1-10.3,5.8-13.4
		c3.2-1.7,5.5-2.2,8.6-0.1c4.3,3,8.7,6.6,14.6,3.3c1.2-0.7,1.9,0.1,2.1,1.2c0.7,2.9,1.4,5.7,1.9,8.7c0.5,2.7,0,3.7-3.5,3.4
		C922.3,507.8,916.5,511.3,911.4,509.9z"/>
	<path class="st1" d="M903,556c-0.9-4.3-4.6-7.5-4.3-12.3c0.2-4.3,0.7-6.9,5.8-4.7c0.7,0.3,1.6,0.1,2.4,0.1c0.4,0,0.8,0.1,1.2,0.1
		c0.5,0.1,0.9,0.1,1.4,0.2c1.1,0.7,2.2,0.7,3.4,0.4c2.3,0,4.7,0,7,0c0.7-0.1,1.3-0.1,2-0.2c1-0.1,2-0.1,2.9-0.2
		c6.8-1,8.9,0.9,6.6,7.5c-1.1,3.1-2.1,6.6-4.5,9.2C919,554.2,911,554.5,903,556z"/>
	<path class="st4" d="M941.6,507.9c-0.1-3.6,0-6.8,4-8.7c2.6-1.3,4.5-1.3,6.8,0.4c2.1,1.6,4.5,2.9,6.7,4.3c1.1,0.7,2.6,1.8,3.7,0.9
		c4.7-3.7,7.6,0.1,10.8,2.4c2.3,1.6,4.6,3.3,6.8,5c0.8,0.6,1.6,1.4,1.3,2.5c-0.5,1.6-1.9,1.2-2.9,1c-2.4-0.5-4.9-1-7.2-1.9
		c-6.1-2.5-12.2-3-18.5-0.5c-1.7,0.7-3.5,0.9-5.3,1C941.6,514.4,941.6,514.3,941.6,507.9z"/>
	<path class="st5" d="M898.8,484c-0.2-4.9,3-7,5.8-8.7c1.6-0.9,3.7-1.1,5-2.6c0.5-0.5,1.3-0.8,1.8-0.3c4.4,5.4,11.6,5.9,16.8,10.2
		c4,3.3,1.3,6.4,0.1,8.6c-1.3,2.5-4.7,3.6-7.9,1.9c-2.6-1.4-5.2-3-7.7-4.6c-2.3-1.5-4.5-1.8-7-0.4
		C901.7,490.4,898.7,488.3,898.8,484z"/>
	<path class="st6" d="M920.4,600.1c-2.4-8.2-6.4-16-7.4-24.7c-0.2-1.9-2.4-1.1-3.2-2.3c-1,0.8-2.7,1.4-2.8,2.2
		c-1.3,8.8-5.3,16.7-7.9,25.1c-0.9,2.8,0.2,3,2.5,3.1c2.4,0.1,3.3-1.3,3.7-3.2c0.6-2.5,2.1-3.3,4.7-3.2c2.4,0.1,3.9,0.6,4.3,3.1
		c0.4,2.1,1.3,3.8,4.1,3.2C921.3,603.9,921.2,602.6,920.4,600.1z M909.8,593.1c-1.3,0-1.8-0.5-1.8-1.4c0,0,0-0.1,0-0.1
		c0-0.2,0.1-0.4,0.2-0.7c0.5-1.7,0.5-3.6,2.1-5.3c0,0.1,0,0.1,0.1,0.2c0.6,1.8,1,3.5,1.5,5.1c0.1,0.3,0.1,0.6,0.1,0.8
		C912,592.8,911.1,593.1,909.8,593.1z"/>
	<path class="st0" d="M931.7,482.8c-3.8-3.1-6.3-6.8-10.5-8c-3.9-1.1-6.9-3.3-10.2-5.4c-1.4-0.9-5.2,1.9-7.9,3.1
		c-0.8,0.4-1.3,1.5-2.5,1.2c1.1-7.3,8.4-11.8,17.6-10.8C926.6,463.9,932.3,471.8,931.7,482.8z"/>
	<path class="st6" d="M1002.5,584.3c-0.7,0.3-1.5,0.8-2.2,0.8c-6.9-0.3-9.7,2.3-9.6,9.2c0,3.6,1.6,7.3,4,8.7c3.7,2,7.7-1.3,11.6,0.5
		c1,0.4,1-1.8,1-2.9c0.1-4.1-0.1-8.3,0.1-12.4C1007.5,583.8,1006.5,582.8,1002.5,584.3z M1002.8,594.4
		C1002.8,594.4,1002.8,594.5,1002.8,594.4c-0.1,2.2-0.9,4.7-3.7,4.4c-2.4-0.3-3.1-2.1-3.2-4.1c0-0.3,0-0.5,0-0.8
		c0.1-2.5,1-4.8,3.5-4.6c2.4,0.1,3.3,2,3.4,4.1C1002.8,593.7,1002.8,594.1,1002.8,594.4z"/>
	<path class="st7" d="M950,589.4c0-0.2-0.1-1.9-0.3-3.5c-0.2-2.4,2.2-1.8,3.1-2.9c0.5,1.4,3.4,0.3,2.8,3.2c-0.6,3.2-0.3,6.6-0.3,9.9
		c0,1.6,0.6,3,2.6,3s2.5-1.4,2.5-3c0.1-3.1,0.6-6.4-0.1-9.4c-0.7-3,1.8-2.5,2.7-3.7c0.9,1.2,3.6,0.4,3.1,3.4
		c-0.6,3.4-0.1,7-0.3,10.4c-0.4,4.9-3.2,7.3-8.4,7c-4.8-0.2-7.2-2.6-7.4-7.5C950,594.5,950,592.7,950,589.4z"/>
	<path class="st7" d="M930.1,598.2c-0.9-1.7-2.6-1.6-4-2.3c-2.7-1.4-4.9-3.5-4-7.1c0.8-3.2,3.1-4.5,6.2-4.7c1.3-0.1,2.6,0.9,3.8-0.2
		c1.8-1.8,2.3,1.1,3.6,1c-0.1,1.6,0.2,3.4-0.4,4.7c-0.6,1.3-2.4,0.7-3.6,0.3c-0.6-0.2-1-0.8-1.6-1.2c-0.9-0.7-1.9-0.8-2.5,0.3
		c-0.6,1.2,0.4,1.8,1.3,2.2c1.5,0.7,3.1,1.1,4.5,2c2.7,1.6,3.3,4.2,2.2,7c-1.4,3.6-4.7,3.9-8,3.6c-2.8-0.3-5.4-1.6-5.8-4.6
		c-0.3-2.6,1.8-2.3,3.5-1.8C926.8,597.8,927.9,600.1,930.1,598.2z"/>
	<path class="st7" d="M1024.3,598.5c-0.4,2.6-1.7,4.1-4.2,4.8c-3.2,0.9-6.2,0.7-8.7-1.8c-1.4-1.4-2.3-2.9-0.4-4.6c0,0,0,0,0.1,0
		c1.1,0.3,2.2,0.4,3.2,0.8c1.3,0.5,1.9,2.5,3.7,1.7c0.4-0.2,0.8-0.9,0.8-1.4c0,0,0,0,0,0c0-0.1,0-0.1,0-0.2c-0.5-2-2.4-2-3.9-2.6
		c-0.6-0.2-1.3-0.3-1.9-0.4c-2.4-1.7-3.4-3.8-2.4-6.8c1-3.1,3.2-3.3,5.8-3.2c1.1,0,2.7,0.1,3.3-0.6c1.9-2.1,3-0.2,4.4,0.5
		c-1.1,1.7,1.6,4.9-2.1,5.5c-0.2-0.1-0.5-0.1-0.7-0.2c-0.2-0.1-0.4-0.1-0.6-0.2c-0.2-0.1-0.4-0.1-0.6-0.2c-0.2-0.1-0.3-0.2-0.5-0.3
		c-0.1-0.1-0.2-0.1-0.3-0.2c-1.1-0.8-2.2-2.2-3.3-0.6c-0.6,0.9-0.5,1.5-0.1,1.9c0,0,0,0,0,0c0.5,0.5,1.4,0.7,2.1,1.1
		c0.1,0.1,0.2,0.1,0.2,0.2c0,0,0.1,0,0.1,0.1c0.4,0.2,0.9,0.2,1.4,0.3c0.1,0,0.2,0,0.3,0C1022.5,593.5,1024.8,595,1024.3,598.5z"/>
	<path class="st8" d="M971,556.7c-1.1,0-1.7,0.1-2.4,0c-1.9-0.3-4.8,1.2-5.5-1.7c-0.7-2.8,0.9-5.3,3.3-6.7c3.9-2.1,8.1-3.5,12.7-3.4
		c3.1,0.1,3.6,1.8,2.1,3.7c-1.4,1.8-2,3.6-2.6,5.7C977.3,559.2,973.2,555.5,971,556.7z"/>
	<path class="st7" d="M945,581.2c0,1.5-0.3,2.9,1.4,3.5c1.4,0.5,1.7,2.3,1,2.9c-4.5,3.6-1.9,8.5-2.4,12.7c-0.2,2-0.1,3.5-2.9,3.4
		c-2.6-0.1-2.4-1.6-2.5-3.3c-0.2-4.5,0.5-8.9-1.6-13.4c-0.9-1.9,2.5-5,1.1-8.1c1.3-0.2,2.2-2.2,3.7-1.4
		C944.3,578.2,946.7,578.8,945,581.2z"/>
	<path class="st2" d="M1007.6,531.2c-4.4,0-8.7-0.2-13,0.1c-2.9,0.1-3.6-1-3.6-3.7c0-6.4-0.2-5.9,6.3-5.1
		C1002.7,523.1,1007.2,523.9,1007.6,531.2z"/>
	<path class="st7" d="M982.6,593.2c-0.1-2.3-0.1-4.6-0.4-6.9c-0.3-2.4,2-2.1,2.9-3.2c0.7,1.3,3.2,0.5,3,3.1
		c-0.4,4.9-0.3,9.9-0.3,14.9c0,2-0.7,2.6-2.6,2.5c-1.8,0-2.8-0.5-2.7-2.5C982.6,598.5,982.5,595.8,982.6,593.2
		C982.5,593.2,982.6,593.2,982.6,593.2z"/>
	<path class="st9" d="M979.5,584.8c-0.3,2.8,0.5,5.2-3.4,6.8c-2.8,1.1-2.3,5.4-2.2,8.5c0.1,1.8,0.6,3.9-2.2,3.9c-3.1,0-2-2.4-2.1-4
		c-0.1-4,0.5-8-0.2-11.9c-0.8-4.1,1.2-4.5,3.7-3.4C975.4,585.7,977.4,584.6,979.5,584.8z"/>
	<path class="st10" d="M898.6,620.7c0.7-3.2-1.6-7.5,3.8-7.9c2.8-0.2,4.9,0.8,5.5,3.8c0.5,2.9,0.5,5.7-2.8,7.1
		c-0.6,0.3-1.3,0.3-1.9,0.3c-2-0.1-0.9,5.5-4,2.5C898.1,625.5,898.8,622.6,898.6,620.7z"/>
	<path class="st11" d="M973.3,614.9c1.2,5.7,4.5,1.7,7.2,1.9c-1.3-2-3.7,0.2-4.4-1.9c-0.3-0.9,0.4-1.6,1.2-1.9c2-0.5,4.2-0.8,5.6,1
		c2,2.6,1.7,5.9,0.6,8.5c-0.9,2.2-4.4,2.4-5.7,1.2c-2.3-2.2-4.8,2.1-6.6-0.8C975.4,621.2,971.4,617.3,973.3,614.9z"/>
	<path class="st10" d="M927.1,614.3c3.2-3.4,6-0.3,8.9,0.6c0,2.4,0,4.8,0,7.3c-0.7,0.4-1.3,0.9-2.1,1.2c-2.7,1.1-5.8,1.9-7.3-1.4
		c-1.7-3.6,1.6-4.3,4.2-5.3c-0.8-1.8-3.3,0.3-3.7-1.8C927.1,614.7,927.1,614.5,927.1,614.3z"/>
	<path class="st10" d="M1019.1,619.3c0.4,2.8-0.4,4.9-4.1,4.9c-2.5,0-5.4-1.5-4.3-3.3c1.6-2.6-2.5-8,3.9-8
		C1018,612.8,1019.1,614.3,1019.1,619.3z"/>
	<path class="st11" d="M913.8,616.7c-1.3-1.6-4.4,0.6-3.9-2.3c0.3-2,2.6-1.6,4.2-1.5c2.4,0.1,3.7,1.5,3.7,3.8c0,2.5,1.3,5.7-1.9,7
		c-2.3,1-5.2,1.2-6.5-1.7C907.7,618.1,911.1,617.5,913.8,616.7z"/>
	<path class="st10" d="M951.7,622.2c-0.9-0.2-1.4-3.1-2.6-0.2c-1.1,2.6-3.3,2.2-5.5,2c-0.5,0-0.9-0.3-1.4-0.5
		c-0.8-0.4-1.8-1.3-1.1-1.8c3.3-2.2-3.4-8.2,3.4-8.8c1.7-0.2,3.9-0.3,4.2,1.6c0.4,2.5-2.4,0.7-3.4,1.9c1.5,1.1,3.4,1.6,4.4,3.6
		c1.1-2,0.4-4.3,2.4-5.6C951.9,617,951.8,619.6,951.7,622.2z"/>
	<path class="st10" d="M993.2,613.1c4-0.3,2.7,2.7,2.9,4.7c0.2,1.2-0.3,3.1,1.4,3.1c1.8-0.1,1.1-2,1.2-3.2c0.1-0.5-0.1-1,0-1.5
		c0.2-1.1-0.7-3,1.3-3.1c1.8-0.1,1.8,1.5,2,2.8c0,1.4,0,2.7,0,4.1c0,2.2-0.8,3.8-3.3,4.1c-2.7,0.3-4.8-0.4-6-3
		C993,618.4,993.1,615.7,993.2,613.1z"/>
	<path class="st7" d="M973.3,614.9c-1.9,2.4,2.1,6.3-2.1,8.1c-0.1-0.2-0.1-0.3-0.2-0.5c-0.9-2.1,1.1-6-1.3-6.1
		c-2.8-0.1-0.9,3.6-1.5,5.6c-0.2,0.8-0.1,1.8-1.2,1.8c-0.4,0-1.2-0.1-1.3-0.4c-1.2-3-1.7-6.6,0.1-9
		C967.6,612,970.9,611.7,973.3,614.9z"/>
	<path class="st7" d="M958,614c-1.9,0-3.8,0.1-5.7,0.1h-0.1l-0.2,0.2c0,0.1,0,0.1,0,0.2c-0.1,2-0.1,3.9-0.2,5.8c0,0.7-0.1,1.3-0.1,2
		c0.2,0.1,0.4,0.3,0.6,0.5c0.1,0.1,0.2,0.2,0.3,0.3c0.1,0.1,0.1,0.2,0.2,0.2v-0.1c0,0,0,0,0,0h0.1c0.5,0,0.9,0,1.4,0
		c0.4,0,0.8,0,1.2,0c0.9,0,1.8-0.1,2.8-0.1C961.1,620,961,617,958,614z M956.9,618.9c0,1-0.3,1.7-1,2c-0.2,0.1-0.4,0.1-0.6,0.1
		c-1.5,0-1.6-1.3-1.6-2.5c0-0.2,0-0.5,0-0.7c0-0.8,0.3-1.5,1.3-1.7c1.2-0.2,1.6,0.6,1.8,1.2c0,0.2,0.1,0.4,0.1,0.5
		C956.9,618.1,956.9,618.5,956.9,618.9z"/>
	<path class="st10" d="M991.7,621.9c-0.5,2.1-1.9,2.6-3.8,2.1c-1.5-0.4-2.1-1.6-2.1-3c-0.1-2.6-0.1-5.3-0.1-7.9c0-1,0.2-2,1.6-2
		c1.3,0,1.4,1.2,1.8,2c0,1.6,2.1,2.7,0.1,4.9C987.6,619.6,989.6,621.3,991.7,621.9z"/>
	<path class="st12" d="M918,514c-5.4,3.1-11.1,4.4-17.3,3.1c-0.4-2.4,1.5-2.1,2.8-2.2c2.8-0.3,5.6-0.6,8.3-0.9
		c1.3,0.1,2.1-0.5,2.1-1.9C916.4,510.4,916.7,513.4,918,514z"/>
	<path class="st11" d="M927.1,614.3c0,0.2,0,0.4,0,0.6c-3.6,0.5-4.7,2.6-4.3,6.1c0.2,2.2-0.1,4.4-3.1,2.1c0-0.3-0.1-0.7-0.1-1
		c0-1.7-0.1-3.4-0.1-5.1c0.1-0.6,0.2-1.3,0.2-1.9C921.8,611.7,924.4,612.8,927.1,614.3z"/>
	<path class="st10" d="M1020.9,616.3c0-1.7,0-3.3,0-5c0-1,0-2.2,1.5-2.1c0.9,0.1,1.6,0.7,1.6,1.6c0.1,3.8,0.1,7.6,0,11.4
		c0,0.9-0.5,1.6-1.5,1.6s-1.5-0.7-1.5-1.6C1020.9,620.2,1021,618.2,1020.9,616.3C1020.9,616.3,1020.9,616.3,1020.9,616.3z"/>
	<path class="st6" d="M935.9,622.2c0-2.4,0-4.8,0-7.3c0-1.1,0.3-1.9,1.7-1.9c1.4,0.1,2.2,1,2.3,2.1c0.2,2.1,0.1,4.3,0.1,6.4
		c0,1,0.1,2.1-1.2,2.3C937.4,624,936,624.1,935.9,622.2z"/>
	<path class="st11" d="M1004.1,614.1c1.3-0.8,2.7-1.5,4.2-1.1c1.6,0.4,2.6,1.8,0.9,2.6c-2.6,1.1-2.1,2.8-2.3,4.8
		c-0.1,1.3,0.7,3.5-1.4,3.6c-2.5,0.1-1.5-2.4-2-3.8C1003.7,618.1,1003.9,616.1,1004.1,614.1z"/>
	<path class="st3" d="M911.9,513.9c-2.8,0.3-5.6,0.6-8.3,0.9c-1.4,0.2-3.2-0.2-2.8,2.2h0.1c0.9-1.4-0.2-1.9-1-2.7
		c-1.6-1.5-0.7-2.1,1.1-2.2c2.7,1,5.5,1,8.2,0c0.9,0,1.8,0,2.7,0C911.8,512.8,911.9,513.4,911.9,513.9z"/>
	<path class="st13" d="M991.7,621.9c-2.1-0.6-4.1-2.3-2.5-4c2-2.2,0-3.3-0.1-4.9c1.4,0,2.7,0.1,4.1,0.1c-0.1,2.6-0.2,5.3-0.3,7.9
		C992.5,621.3,992.1,621.6,991.7,621.9z"/>
	<path class="st10" d="M903,556c8-1.4,16-1.8,24,0.1C919,556.4,911,556.6,903,556z"/>
	<path class="st1" d="M991.2,540.7c0-1.3-0.3-3.1,1.8-2.4c2.7,0.9,5.8,0.6,8,2.7c-2,0.1-4,0.2-6,0.3c-0.7,0-1.3,0-2,0
		C992.4,541.1,991.8,540.9,991.2,540.7z"/>
	<path class="st14" d="M1018.8,598C1018.8,598,1018.8,598,1018.8,598c0,0.5-0.5,1.2-0.8,1.4c-1.8,0.8-2.4-1.2-3.7-1.7
		c-1-0.4-2.1-0.5-3.2-0.8c0.7-0.8,1.3-1.3,1.9-2c0.6,0.1,1.3,0.1,1.9,0.4C1016.4,595.9,1018.3,595.9,1018.8,598
		C1018.8,597.9,1018.8,598,1018.8,598z"/>
	<path class="st13" d="M1018.8,598c0,0.5-0.4,1.3-0.8,1.5c-1.8,0.8-2.5-1.2-3.7-1.7c-1-0.4-2.2-0.6-3.3-0.8c0,0,0-0.1,0.1-0.1
		c1.1,0.3,2.2,0.4,3.2,0.8c1.3,0.5,1.9,2.5,3.7,1.7C1018.4,599.2,1018.8,598.5,1018.8,598z"/>
	<path class="st12" d="M995,541.3c2-0.1,4-0.2,6-0.3c2.4-1.4,4.8-1.6,7.5,0.9C1003.6,541.8,999.3,542.7,995,541.3z"/>
	<path class="st11" d="M988.1,578.5c0,1.6-1.2,1.8-2.1,2c-1.5,0.4-3.4,0.1-3.8-1.4c-0.4-1.5,1.8-1.8,2.6-2
		C985.9,576.8,987.1,578,988.1,578.5z"/>
	<path class="st14" d="M1022.1,590.3c-0.8,0.6-1.4,1.2-2.1,1.7c-0.1,0-0.2,0-0.3,0c-0.5-0.1-1-0.1-1.4-0.3c0,0-0.1,0-0.1-0.1
		c-0.1,0-0.1-0.1-0.2-0.2c-0.6-0.3-1.6-0.6-2.1-1.1c0,0,0,0,0,0c-0.3-0.4-0.4-1,0.2-1.8c1.1-1.6,2.2-0.2,3.3,0.6
		c0.1,0,0.1,0.1,0.2,0.1c0.2,0.1,0.3,0.2,0.5,0.3c0.2,0.1,0.4,0.2,0.6,0.2c0.2,0.1,0.4,0.1,0.6,0.2
		C1021.6,590.1,1021.8,590.2,1022.1,590.3z"/>
	<path class="st13" d="M1018,591.5c0.1,0.1,0.2,0.1,0.2,0.2C1018.2,591.7,1018.1,591.6,1018,591.5c-0.6-0.2-1.6-0.5-2.1-1.1
		C1016.4,590.9,1017.4,591.2,1018,591.5z"/>
	<path class="st12" d="M1004.1,614.1c-0.2,2-0.4,4-0.6,6c-0.5,0-0.9-0.1-1.4-0.1c0-1.4,0-2.7,0-4.1
		C1002.8,615.3,1003.4,614.7,1004.1,614.1z"/>
	<path class="st0" d="M909.1,512.2c-2.7,1-5.5,1-8.2,0C903.6,511.7,906.4,511.7,909.1,512.2z"/>
	<path class="st10" d="M958.1,614c-1.9,0-3.9,0.1-5.8,0.1C954.2,612.4,956.1,612.2,958.1,614z"/>
	<path class="st10" d="M952.8,623.2c1.8,0,3.6-0.1,5.4-0.1C956.4,624.5,954.6,624.7,952.8,623.2z"/>
	<path class="st0" d="M911.9,513.9c0-0.6,0-1.2-0.1-1.7c0.7,0,1.4-0.1,2.2-0.1C914,513.5,913.2,514,911.9,513.9z"/>
	<path class="st12" d="M913,539.8c-1.2,0.3-2.4,0.3-3.4-0.4C910.8,538.9,912,538.8,913,539.8z"/>
	<path class="st12" d="M991.2,540.7c0.6,0.2,1.2,0.4,1.8,0.6C992.1,542.1,991.4,541.9,991.2,540.7z"/>
	<path class="st12" d="M922,539.6c-0.7,0.1-1.3,0.1-2,0.2C920.6,539,921.3,538.9,922,539.6z"/>
	<path class="st12" d="M919.6,615c-0.1,0.6-0.2,1.3-0.2,1.9C918.8,616.2,918.8,615.6,919.6,615z"/>
	<path class="st12" d="M898.9,534c0.4,0.3,0.8,0.6,1.2,0.9C899.6,534.8,898.5,535.5,898.9,534z"/>
	<path class="st12" d="M908.2,539.1c-0.4,0-0.8-0.1-1.2-0.1C907.4,539.1,907.8,539.1,908.2,539.1z"/>
	<path class="st5" d="M909.2,537.1c0.2-0.2,0.5-0.2,0.7,0.1l-0.3,0.2L909.2,537.1z"/>
	<path class="st12" d="M919.5,622c0,0.3,0.1,0.7,0.1,1c-0.1-0.2-0.3-0.4-0.4-0.7C919.2,622.3,919.4,622.1,919.5,622z"/>
	<path class="st10" d="M951.7,622.2c0.4,0.4,0.7,0.7,1.1,1.1C952.5,622.9,952.1,622.5,951.7,622.2z"/>
	<path class="st13" d="M1019,477.9c0,4.6-3.4,8.1-8.1,8.2c-4.4,0.1-8.8-4.2-8.7-8.4c0.1-4.3,4.1-8.4,8.3-8.4
		C1014.8,469.1,1018.9,473.4,1019,477.9z M1010.6,471.8c-3.8,0.1-6.1,2.3-6.1,5.9s2.4,6,6,6s6-2.3,6.1-6
		C1016.6,474.1,1014.4,472,1010.6,471.8z"/>
	<path class="st14" d="M912,591.7c0,1.1-0.9,1.4-2.2,1.3c-1.2,0-1.7-0.5-1.8-1.3c0,0,0-0.1,0-0.1c0-0.2,0.1-0.4,0.2-0.7
		c0.5-1.7,0.5-3.6,2.1-5.3c0,0.1,0,0.1,0.1,0.2c0.6,1.8,1,3.5,1.5,5.1C912,591.2,912,591.5,912,591.7z"/>
	<path class="st13" d="M908.2,590.8c0.5-1.6,0.4-3.5,2.1-5.2c-1.6,1.7-1.6,3.6-2.1,5.3c-0.1,0.2-0.1,0.5-0.2,0.7
		C908.1,591.3,908.1,591.1,908.2,590.8z"/>
	<path class="st13" d="M912,591.7c0-0.2-0.1-0.5-0.1-0.8c-0.5-1.6-1-3.3-1.5-5.1c0.6,1.8,1.2,3.5,1.5,5
		C912,591.1,912,591.4,912,591.7z"/>
	<path class="st14" d="M1002.8,593.4c0,0.3,0,0.7,0,1c-0.1,2.1-0.9,4.6-3.7,4.3c-2.3-0.3-3-2-3.2-4c0-0.3,0-0.5,0-0.8
		c0.1-2.5,1-4.8,3.5-4.6C1001.8,589.4,1002.7,591.3,1002.8,593.4z"/>
	<path class="st13" d="M1002.8,593.4c-0.1-2.1-1-4-3.4-4.1c-2.5-0.2-3.4,2.1-3.5,4.6v-0.1c0-2.4,1-4.7,3.5-4.6
		C1001.8,589.3,1002.7,591.3,1002.8,593.4z"/>
	<path class="st14" d="M956.9,618.9c-0.1,1-0.3,1.7-1,2c-0.2,0.1-0.4,0.1-0.6,0.1c-1.5,0-1.6-1.3-1.6-2.5c0-0.2,0-0.5,0-0.7
		c0.1-0.8,0.3-1.5,1.3-1.6c1.3-0.1,1.7,0.5,1.8,1.1c0,0.2,0.1,0.4,0.1,0.5C956.9,618.1,956.9,618.5,956.9,618.9z"/>
	<path class="st13" d="M955.9,620.8c-0.2,0.1-0.4,0.1-0.6,0.2c-1.5,0.1-1.7-1.4-1.6-2.6c0,1.2,0.1,2.5,1.6,2.5
		C955.5,620.9,955.8,620.9,955.9,620.8z"/>
	<path class="st15" d="M1010.6,471.8c3.8,0.2,6,2.3,5.9,5.9c0,3.7-2.4,6-6.1,6c-3.6,0-6-2.4-6-6
		C1004.6,474.1,1006.8,472,1010.6,471.8z"/>
</g>
</svg>
